<?xml version="1.0" encoding="utf-8"?>
<!-- Generator: Adobe Illustrator 27.8.1, SVG Export Plug-In . SVG Version: 6.00 Build 0)  -->
<svg version="1.1" id="Vrstva_1" xmlns="http://www.w3.org/2000/svg" xmlns:xlink="http://www.w3.org/1999/xlink" x="0px" y="0px"
	 viewBox="0 0 1027.66 574.79" style="enable-background:new 0 0 1027.66 574.79;" xml:space="preserve">
<style type="text/css">
	.st0{fill:#BD2D33;}
	.st1{fill:#FFFFFF;}
	.st2{fill-rule:evenodd;clip-rule:evenodd;fill:#FFFFFF;}
</style>
<g>
	<path class="st0" d="M543.13,240.61c0,8.07,6.53,14.61,14.59,14.61c8.07,0,14.62-6.54,14.62-14.61c0-8.06-6.55-14.6-14.62-14.6
		C549.66,226.01,543.13,232.55,543.13,240.61 M581.36,156.11c0-33.12-29.19-46.09-51.64-46.09c0,0-3.9,0.57-8.5,1.2
		c1.27-0.18,2.93-0.04,2.93-0.04c13.43,0,19,23.39,19,44.93c0,2.89-0.03,44.04-0.03,44.04
		C563.28,195.75,581.36,182.46,581.36,156.11"/>
	<path class="st1" d="M456.07,111.19c13.2,0,14.6,8.33,14.6,25.48v156.4l35.81-20.99l0.09-135.41c0.22-17.14,1.4-25.48,14.6-25.48
		l8.56-1.16h-73.65V111.19z"/>
	<path class="st1" d="M280.4,192.43c2.53,30.23,19.52,53.27,43.42,66.69v-148.8C294.92,125.89,277.29,155.11,280.4,192.43"/>
	<path class="st1" d="M386.88,110.68v149.19c28.77-15.9,46.11-45.89,43.17-84.62C427.8,146.03,410.83,123.67,386.88,110.68"/>
	<path class="st1" d="M240.94,218.05V113.52h26.96v-6.36h-26.96V70.21h-1.52l-43.94,25.74v116.04c0,44.84,35.16,47.87,55.75,47.87
		c8.8,0,14.55-1.52,19.09-3.94v-1.52c-2.12,0.92-7.26,3.05-13.33,3.05C242.45,257.45,240.94,238.35,240.94,218.05"/>
	<path class="st1" d="M114.03,271.33l3.48,15.96c2.58,7.87,4.46,16.6,5.43,24.87c3.38,29.46-3.74,55.29-14.86,77.47
		c-11.55,23.04-24.81,44.16-33.17,66.49c0,0-3.41,11.72-4.86,17.21c-8.4,31.8-6.14,65.52-0.33,101.46
		c-0.86-27.29-2.87-45.87-0.86-66.69c3.21-33.4,12.86-51.61,27.06-75.43c17.31-29.03,38.82-64.34,35.84-105.72
		C130.21,305.79,122.85,286.62,114.03,271.33"/>
	<path class="st1" d="M140.73,100.76c-8.29,1.19-13.12,9.39-20.82,13.72c-6.09,3.44-11.91,4.35-17.44,6.91
		c5.11-5.5,12.97-8.97,15.03-16.75c0.03-1.23-0.06-2.14-1.84-2.65c-5.11,0.32-9.82,2.54-14.19,5.27c0.33-7.75,2.31-15.81,3.26-23.18
		c3.16,0.53,4.42,0.3,5.48-1.81c1.21-8.71-5.46-16.7-3.94-25.72c2.55-3.7,5.71-6.87,6.14-12.39c4.08,3.65,7.65,7.82,15.31,7.35
		c2.09-0.55,2.25-1.56,3.24-3.76c-0.14-4.29-0.95-9.25-3-12.43c-4.18-6.47-17.78-22.81-25.27-29.13c-3.48-2.93-9.93-6.69-12.41-6.14
		c-8.89,1.98,0.16,10.16,3.65,11.69c-2.68-0.18-4.03-1.9-7.16-1.59c-1.12,0.97,0.3,4.17-1.78,4.34c-24.48,0.24-9.2,20.49-8.79,34.37
		c-2.05-4.68-4.21-9.27-8.54-11.32c-2.45,9.83,6.23,12.85,5.83,22.77c-2.37-2.08-3.99-0.22-4.09,1.7c0.23,7.32,1.4,13.55,6.71,15
		c4.46,11.25,8.88,29.25,7.46,43.62c-8.95,7.79-16.65,16.24-25.44,24.4c-17.09,14.87-43.08,36.25-53.99,43.87
		c-5,4.98-6.51,5.64,1.45,20.05c4.32,12.56,47.04,51.13,42.67,66.82c-4.08,5.89-7.06,10.79-7.98,13.04
		c-4.11,10-9.11,20.63-13.16,31.22c-4.09,10.67-7.19,23.48-9.22,34.7c1.87,5.58,5.13,8.08,8.72,9.82
		c14.28-9.55,15.85-26.81,22.21-40.27c7.64-16.14,16.97-30.59,28.5-45.16c-4.39,12.16-12.48,23.17-18.14,36.23
		c-5.33,12.33-10.41,25.4-14.7,38.69c-6.31,19.48-11.44,39.28-12.65,62.24c-0.68,12.99-3,27.36,7.73,40.19
		c5.66-2.29,6.16-6.89,6.93-11.38c-2.23,2.16-1.68,5.58-3.94,7.75c-3.94-3.3-3.94-10.39-3.95-15.38c-0.03-8.15,2.1-17.23,1.97-24.48
		c1.02-0.23,1.6,0.47,1.91,1.78c5.85-14.73,6.08-29.83,11.35-44.29C69,328.79,88.5,287.56,112.92,249.4
		c-1.67-10.2-10.24-10.3-17.93-4.46c-13.97,10.63-26.56,31.72-36.91,42.72c6.41-12.07,13.68-23.75,20.8-35.48
		c8.6-10.24,15.06-16.68,22.9-21.38c6.82-4.07,10.94-6.13,17.65-10.23c6.83-4.2,7.49-10.7,0.25-13.57
		c-12.12-4.78-24.38,7.03-41.6,10.17c7.24-6.36,19.08-13.92,31.86-21.15c11.96-6.75,25.41-12.8,32.43-20.74
		c2.79-3.14,6.41-10.94,6.55-15.04c0.64-18.42-18.77-16.7-32.56-10.3c-13.79,6.41-10.09,2.64-8.17,0.7
		c12.99-8.13,30.41-18.36,39.94-29.12c0.05-0.05,0.78-1.05,0.81-1.09C153.4,112.91,152.2,99.12,140.73,100.76 M55.2,223.43
		c-3.29,19.34,21.57,4.14,34.51,0.3c14.23-4.21,19.73-13.92,28.34-9.7c-7.59,7.05-17.94,12.17-25.9,17.82
		c-5.13,3.64-10.24,7.46-15.07,11.52c-6.89,5.06-14.82,13.91-21.59,22.62c-16.14-23.97-31.51-43.23-43.86-65.03
		c0.09-4.82,20.18-19.95,37.2-32.25c0.15,0.07,0.24,0.18,0.38,0.24c-4.59,5.16-10.77,8.8-9.59,17.42c2.42,18,28.84,15.5,43.43,8.23
		C74.43,204.71,66.54,215.37,55.2,223.43 M96.16,13.68c8.58,3.01,19.16,16.76,24.53,28.48C107.63,38.31,105.48,21.86,96.16,13.68"/>
	<path class="st1" d="M89.36,338.91c21.22-37.41,13.21-34.37,13.21-34.37c-2.99,13.78-15.69,23.94-22.37,36.59
		c-14.97,28.34-22.55,58.26-30.87,90.73c-0.13,0.75,0,0.92,0,0.92c2.05,0.59,2.39-3.45,2.39-5.27
		c6.27-14.83,11.27-30.05,17.22-45.25C74.61,367.69,77.12,350.57,89.36,338.91"/>
	<path class="st1" d="M893.95,250.33c-2.59-4-17.45-26.5-17.45-26.5c-2.89,2.69-6.08,5.54-8.81,8.02l18.36,29.37h18.54v-0.41
		C902.26,260.81,897.58,255.9,893.95,250.33"/>
	<path class="st1" d="M884.83,216.33c4.38-4.35,11.61-11.16,16.05-11.16v-0.39h-17.16v0.39c5.24,0,5.19,5.52,0.49,11.03
		L884.83,216.33z"/>
	<path class="st1" d="M827.67,260.81h-4.52c-4.6,0-5-2.89-5.07-8.87v-18.7h1.21c6.19,0,11.26,4.91,11.26,10.41h0.42v-21.14h-0.42
		c0,5.48-5.08,10.41-11.26,10.41h-1.21v-18.88c0.07-5.89,0.47-8.87,5.07-8.87h2.02c8.06,0,12.66,6.06,15.01,11.28h0.38l-2.74-11.68
		h-37.31v0.4c4.59,0,5.06,2.98,5.06,8.87v37.89c0,5.99-0.47,8.87-5.06,8.87v0.41h39.89l3.32-14.26h-0.4
		C840.98,252.19,835.81,260.81,827.67,260.81"/>
	<path class="st1" d="M865.49,165.33c-4.6,0-5.02-3-5.07-8.87v-37.89c0.05-5.88,0.47-8.86,5.07-8.86v-0.42h-22.65v0.42
		c4.59,0,5.07,2.98,5.07,8.86v37.89c0,5.87-0.47,8.87-5.07,8.87v0.41h22.65V165.33z"/>
	<path class="st1" d="M830.87,165.33c-4.5,0-4.98-3-4.98-8.87v-8.31h0.05c0-5.47,5.06-10.37,11.23-10.39h0.07v-0.4h-0.78
		c-5.85-0.41-10.52-5.08-10.52-10.33h-0.05v-8.46c0-5.88,0.47-8.86,4.98-8.86v-0.42h-22.56v0.42c4.59,0,5.01,2.98,5.08,8.86v37.89
		c-0.07,5.87-0.49,8.87-5.08,8.87v0.41h22.56V165.33z"/>
	<path class="st1" d="M772.34,117.28c0-4.12,2.58-8.38,7.84-8.38c9.58,0,15.06,8.38,15.06,18.13h0.41v-20.72h-0.41
		c0,4.52-1.6,5.32-4.51,4.52c-3.55-0.98-6.2-2.34-10.72-2.34c-10.96,0-18.79,6.53-18.79,16.12c0,18.87,26.61,17.9,26.61,33.14
		c0,3.72-2.36,8.4-9.44,8.4c-12.65,0-17.17-13.48-17.17-18.15h-0.4v20.72h0.4c0-5.48,4.11-4.44,6.86-3.7
		c2.89,0.72,6.1,1.52,10.57,1.52c13.46,0,20.88-7.42,20.88-17.18C799.53,131.55,772.34,130.42,772.34,117.28"/>
	<path class="st1" d="M780.41,260.81h-4.52c-4.6,0-5-2.89-5.08-8.87v-18.7h1.21c6.2,0,11.28,4.91,11.28,10.41h0.41v-21.14h-0.41
		c0,5.48-5.08,10.41-11.28,10.41h-1.21v-18.88c0.08-5.89,0.48-8.87,5.08-8.87h2c8.07,0,12.67,6.06,15.01,11.28h0.4l-2.74-11.68
		h-37.34v0.4c4.61,0,5.1,2.98,5.1,8.87v37.89c0,5.99-0.48,8.87-5.1,8.87v0.41h39.93l3.3-14.26h-0.41
		C793.7,252.19,788.55,260.81,780.41,260.81"/>
	<path class="st1" d="M732.92,165.33v0.41h23.87v-0.41c-5.08,0-7.26-5.73-9.44-10.87c-2.1-5.17-17.89-45.17-17.89-45.17h-1.78
		c0,0-2.47,6.33-5.54,14.19c0,0,12.29,32.34,13.03,34.43C737.44,163.79,736.87,165.33,732.92,165.33"/>
	<path class="st1" d="M731.62,205.17c5.3,0,5.87,7.42,4.5,13.49l0.66,0.06c0.13-0.36,0.24-0.76,0.34-1.05
		c2.25-7.26,6.54-11.6,11.69-12.5v-0.4h-17.18V205.17z"/>
	<path class="st1" d="M728.01,244.6l-14.35-39.83h-2.02l-5.58,17.03l15.17,39.41h1.79c0,0,2.39-7.36,5.23-16.1l-0.22-0.58
		C728.03,244.56,728.01,244.58,728.01,244.6"/>
	<path class="st1" d="M698.57,165.33v0.41h17.16v-0.41c-5.13,0-5.93-7.73-3.88-14.28l-0.44-0.11c-0.29,0.76-0.57,1.4-0.75,1.89
		C707.51,160.81,703.72,164.36,698.57,165.33"/>
	<path class="st1" d="M688.41,165.33c-4.6,0-5-2.89-5.09-8.87v-18.71h1.21c6.21,0,11.28,4.91,11.28,10.4h0.41v-21.13h-0.41
		c0,5.48-5.07,10.41-11.28,10.41h-1.21v-18.87c0.09-5.9,0.49-8.86,5.09-8.86h1.92c8.16,0,12.75,6.03,15.09,11.26h0.39l-2.74-11.69
		h-37.33v0.42c4.61,0,5.09,2.96,5.09,8.86v37.89c0,5.97-0.47,8.87-5.09,8.87v0.41h22.66V165.33z"/>
	<path class="st1" d="M690.75,205.17v-0.4h-25.4v0.4c5.08,0,6.94,4.37,9.44,10.8c2.89,7.75,16.93,45.24,16.93,45.24h1.76l5.76-17.48
		c0,0-9.21-26.14-11.48-32.03C685.93,206.87,687.13,205.17,690.75,205.17"/>
	<path class="st1" d="M865.31,251.94v-37.89c0.1-5.9,0.5-8.88,5.1-8.88v-0.39h-22.66v0.39c4.59,0,5.1,2.98,5.1,8.88v37.89
		c0,5.96-0.5,8.87-5.1,8.87v0.4h22.66v-0.4C865.81,260.81,865.4,257.9,865.31,251.94"/>
	<path class="st1" d="M897.74,165.33c-4.59,0-5.08-2.89-5.08-8.87v-37.89c0-5.88,0.49-8.86,5.08-8.86v-0.42H875.1v0.42
		c4.59,0,4.99,2.98,5.08,8.86v37.89c-0.09,5.97-0.48,8.87-5.08,8.87v0.41h22.64V165.33z"/>
	<path class="st1" d="M978.07,150.25l-0.44,0.04c-0.07,9.47-4.53,15.04-9.97,15.04v0.4h20.31v-0.4
		C982.52,165.33,978.12,159.73,978.07,150.25"/>
	<path class="st1" d="M968.23,109.29v0.42c3.46,0,6.7,3.7,9.43,7.57v0.01c0,0,36.65,47.14,37.74,48.44h2.35v-16.48l-30.72-39.96
		H968.23z"/>
	<path class="st1" d="M1007.35,109.29v0.42c5.48,0,9.99,5.64,9.99,15.24v0.2l0.41,0.06v-0.26c0-9.6,4.43-15.24,9.91-15.24v-0.42
		H1007.35z"/>
	<path class="st1" d="M931.53,108.57c-17.17,1.45-29.43,13.7-27.97,31.36c1.45,17.57,17.33,27.91,34.6,26.54
		c17.16-1.46,29.17-13.95,27.82-32.25C964.67,117.28,948.8,107.19,931.53,108.57 M938.15,166.05c-9.61,0.73-18.63-11.59-20.24-27.24
		c-1.61-15.5,4.18-28.86,13.55-29.85c9.61-0.8,19.13,10.97,20.25,27.01C952.82,152.11,947.5,165,938.15,166.05"/>
	<rect x="620.72" y="109.38" class="st2" width="6.38" height="151.28"/>
</g>
</svg>
